<svg width="90" height="77" viewBox="0 0 90 77" fill="none" xmlns="http://www.w3.org/2000/svg">
<path d="M20.2788 9.5277C20.7171 9.52666 21.1554 9.52529 21.5937 9.52363C22.7736 9.52017 23.9535 9.52148 25.1334 9.52392C26.373 9.52587 27.6126 9.52406 28.8523 9.52286C31.0647 9.52138 33.2771 9.52375 35.4895 9.52765C37.4911 9.53108 39.4926 9.53048 41.4942 9.52695C43.827 9.52284 46.1598 9.52133 48.4926 9.52359C49.7245 9.52478 50.9563 9.52495 52.1882 9.52241C53.3456 9.52019 54.5028 9.52175 55.6602 9.52616C56.0836 9.52717 56.5069 9.52689 56.9303 9.52519C62.2676 9.50578 62.2676 9.50578 64.2808 11.4934C65.3714 12.7776 65.7826 14.0072 65.709 15.6956C65.4535 17.2543 64.6733 18.7159 63.3913 19.6655C61.1218 21.1379 58.8356 21.0602 56.2291 21.0406C55.8076 21.041 55.3861 21.0418 54.9646 21.0429C54.0613 21.0446 53.158 21.0433 52.2547 21.0398C50.8251 21.0342 49.3956 21.0357 47.966 21.0382C45.961 21.0411 43.956 21.0411 41.9511 21.0384C41.7607 21.0382 41.7607 21.0382 41.5665 21.0379C41.0523 21.0372 40.5381 21.0365 40.0239 21.0358C38.6076 21.0338 37.1914 21.0322 35.7751 21.031C35.6483 21.0308 35.5214 21.0307 35.3907 21.0306C33.2712 21.0288 31.1517 21.0301 29.0322 21.0333C27.6123 21.0352 26.1924 21.0333 24.7725 21.0284C23.8883 21.026 23.0041 21.0268 22.1199 21.0285C21.7113 21.0286 21.3027 21.0274 20.894 21.0247C17.8376 21.0059 15.3952 21.3091 13.021 23.4042C11.3046 25.1956 10.8006 27.4262 10.8054 29.8188C10.8049 29.9992 10.8045 30.1797 10.8041 30.3656C10.803 30.9694 10.8032 31.5731 10.8033 32.1769C10.8028 32.6102 10.8021 33.0434 10.8013 33.4767C10.7998 34.4093 10.7988 35.342 10.7982 36.2747C10.7971 37.7499 10.7939 39.2251 10.7903 40.7003C10.7891 41.2056 10.7879 41.7108 10.7866 42.216C10.7862 42.4054 10.7862 42.4054 10.7857 42.5986C10.7823 44.0346 10.7792 45.4705 10.7763 46.9064C10.776 47.0376 10.7758 47.1688 10.7755 47.304C10.7713 49.4298 10.7692 51.5557 10.7678 53.6815C10.7663 55.8663 10.7617 58.0511 10.7548 60.2359C10.751 61.4617 10.7486 62.6874 10.7496 63.9132C10.7505 65.0663 10.7478 66.2193 10.7425 67.3724C10.7412 67.795 10.7412 68.2177 10.7425 68.6404C10.7442 69.2185 10.7412 69.7964 10.7371 70.3745C10.7387 70.5408 10.7403 70.7072 10.742 70.8785C10.7229 72.3241 10.2505 73.3998 9.46593 74.5997C8.12382 75.8835 6.51238 76.3624 4.69141 76.3406C3.29832 76.1798 2.09927 75.399 1.17467 74.3653C0.197964 73.1152 -0.00694361 71.8352 0.0081464 70.2882C0.00635379 70.0022 0.00635443 70.0022 0.00452561 69.7104C0.00148444 69.0753 0.00388437 68.4404 0.00629948 67.8053C0.00526074 67.3484 0.00389636 66.8914 0.00223157 66.4345C-0.000895079 65.324 -0.000442617 64.2136 0.00178152 63.1031C0.00351643 62.1992 0.00374426 61.2953 0.00291247 60.3914C0.00279509 60.2624 0.00267835 60.1334 0.00255741 60.0005C0.00231245 59.7383 0.00206396 59.4762 0.00181221 59.2141C-0.000370237 56.758 0.0021353 54.3021 0.00625564 51.8461C0.00967108 49.7454 0.00908892 47.6448 0.00555136 45.5441C0.00143588 43.0992 -0.000152381 40.6542 0.00219065 38.2093C0.00243465 37.9476 0.00267485 37.6859 0.00291247 37.4243C0.00303066 37.2956 0.00314869 37.1669 0.00327046 37.0343C0.00392772 36.1338 0.00282458 35.2334 0.00101295 34.333C-0.00121642 33.1161 0.000364833 31.8993 0.00476232 30.6824C0.00576696 30.2382 0.0054988 29.794 0.00379502 29.3498C-0.0148898 23.9789 1.16423 19.1853 4.91585 15.1457C9.35201 10.866 14.2523 9.5034 20.2788 9.5277Z" fill="white"/>
<path d="M78.2453 1.00847C79.408 1.90383 80.3723 2.95039 81.3096 4.07278C81.4509 4.23325 81.5921 4.39372 81.7376 4.55906C84.7423 8.03266 87.0094 11.9554 88.3958 16.33C88.4836 16.6052 88.4836 16.6052 88.5732 16.8859C88.7122 17.3374 88.8425 17.7904 88.9704 18.2452C89.0193 18.4067 89.0682 18.5681 89.1185 18.7345C89.8747 21.3174 90.0067 23.8814 89.9998 26.5523C89.9997 26.7119 89.9995 26.8716 89.9993 27.036C89.966 36.682 86.0862 45.3406 79.3075 52.1109C74.3308 56.9321 72.3082 56.9321 72.3082 56.9321C72.3784 57.0321 72.4486 57.132 72.5209 57.2351C73.786 59.0378 75.0491 60.8416 76.2924 62.6594C76.784 63.3768 77.2807 64.0903 77.7822 64.8008C77.9007 64.9689 78.0192 65.1371 78.1413 65.3103C78.3704 65.6349 78.6001 65.9591 78.8304 66.2828C81.6162 70.2322 81.6162 70.2322 81.3096 72.6366C80.8219 74.1998 79.8614 75.272 78.4683 76.1019C77.1391 76.7076 75.5478 76.7233 74.1808 76.2561C71.8272 75.1432 70.5861 73.5237 69.1862 71.4029C68.5519 70.4476 67.9028 69.5024 67.2569 68.5549C66.9746 68.1395 66.6923 67.724 66.41 67.3085C65.7206 66.2943 65.0292 65.2815 64.3363 64.2696C64.1355 63.9764 63.9348 63.6831 63.734 63.3899C63.4158 62.925 63.0975 62.4601 62.7791 61.9954C60.8902 59.2367 59.0273 56.4617 57.1782 53.6762C57.2414 53.5498 57.3046 53.4234 57.3697 53.2932C57.9198 53.1341 58.465 52.9941 59.0216 52.8623C64.3342 51.5249 68.8792 48.7815 72.6913 44.8664C72.7861 44.7802 72.8809 44.694 72.9786 44.6053C76.8499 40.9938 79.5636 34.8045 79.8132 29.5604C79.8401 28.7053 79.8479 27.8506 79.8493 26.9952C79.8497 26.857 79.8501 26.7188 79.8506 26.5764C79.8497 23.92 79.5889 21.4048 78.7241 18.8796C78.6237 18.5846 78.6237 18.5846 78.5212 18.2837C77.1259 14.3318 74.8624 11.1309 72.1015 8.01851C70.8816 6.63622 70.6352 5.67107 70.699 3.87378C70.8261 2.62279 71.1894 1.84668 72.1541 1.03989C74.1251 -0.34566 76.2352 -0.337079 78.2453 1.00847Z" fill="white"/>
<path d="M21.3642 35.6734C24.8054 35.6645 28.2466 35.6577 31.6878 35.6536C33.2857 35.6516 34.8836 35.6489 36.4816 35.6445C37.8748 35.6407 39.268 35.6382 40.6612 35.6374C41.3985 35.6369 42.1357 35.6357 42.873 35.6329C43.568 35.6303 44.2629 35.6295 44.9579 35.6301C45.3324 35.63 45.707 35.6279 46.0815 35.6258C48.3905 35.6311 50.0962 35.9519 51.8187 37.5677C53.0285 38.8588 53.4709 40.0699 53.4145 41.8395C53.1919 43.635 52.2815 44.9682 50.8821 46.0634C49.5647 46.8011 48.4999 47.0583 47.0128 47.0383C46.8463 47.0384 46.6799 47.0385 46.5083 47.0385C45.9632 47.0382 45.4183 47.0337 44.8732 47.0292C44.4932 47.0281 44.1132 47.0273 43.7333 47.0267C42.7371 47.0245 41.7409 47.0189 40.7447 47.0125C39.7267 47.0066 38.7086 47.004 37.6905 47.0011C35.6957 46.995 33.701 46.9852 31.7062 46.9731C31.7069 47.1029 31.7077 47.2328 31.7084 47.3666C31.7253 50.5301 31.738 53.6936 31.7459 56.8571C31.7499 58.387 31.7553 59.9168 31.764 61.4467C31.7717 62.7805 31.7766 64.1143 31.7783 65.4481C31.7793 66.1541 31.7817 66.8599 31.7872 67.5658C31.7934 68.3549 31.7936 69.1438 31.7932 69.9329C31.796 70.1656 31.7987 70.3983 31.8016 70.638C31.7931 72.3672 31.4357 73.6733 30.1741 74.9349C28.4912 76.033 27.0179 76.3081 25.0031 76.084C23.6444 75.593 22.6233 74.6694 21.9388 73.4027C21.4853 72.3429 21.2809 71.4707 21.2951 70.3121C21.2946 70.163 21.2941 70.0139 21.2936 69.8602C21.2927 69.3647 21.2958 68.8693 21.299 68.3738C21.2991 68.017 21.2991 67.6602 21.2987 67.3033C21.2986 66.3375 21.3019 65.3717 21.306 64.406C21.3095 63.3956 21.3099 62.3851 21.3106 61.3747C21.3123 59.4627 21.3171 57.5507 21.3228 55.6386C21.3293 53.4613 21.3324 51.284 21.3353 49.1066C21.3413 44.6289 21.3514 40.1512 21.3642 35.6734Z" fill="white"/>
</svg>
